PathFileType   4   (X/Y/Z)
DataRate	CameraRate	NumFrames	NumMarkers	Units	OrigDataRate	OrigDataStartFrame	OrigNumFrames
120.0	120.0	11	37	mm	120.0	79	156
Frame#	Time	midhip	hip_r	hip_l	knee_r	knee_l	ankle_r	ankle_l	midasis	asis_r	asis_l	psis_r	psis_l	epicondLat_r	epicondLat_l	epicondMed_r	epicondMed_l	malleolusLat_r	malleolusLat_l	malleolusMedv_r	malleolusMedv_l	neck	subclavicle_r	subclavicle_l	sternalnotch	xyphoidprocess	thighwand_r	thighwand_l	upperleg1_r	upperleg1_l	upperleg2_r	upperleg2_l	shankwand_r	shankwand_l	lowerleg1_r	lowerleg1_l	toe_r	toe_l
 	 	X1	Y1	Z1	X2	Y2	Z2	X3	Y3	Z3	X4	Y4	Z4	X5	Y5	Z5	X6	Y6	Z6	X7	Y7	Z7	X8	Y8	Z8	X9	Y9	Z9	X10	Y10	Z10	X11	Y11	Z11	X12	Y12	Z12	X13	Y13	Z13	X14	Y14	Z14	X15	Y15	Z15	X16	Y16	Z16	X17	Y17	Z17	X18	Y18	Z18	X19	Y19	Z19	X20	Y20	Z20	X21	Y21	Z21	X22	Y22	Z22	X23	Y23	Z23	X24	Y24	Z24	X25	Y25	Z25	X26	Y26	Z26	X27	Y27	Z27	X28	Y28	Z28	X29	Y29	Z29	X30	Y30	Z30	X31	Y31	Z31	X32	Y32	Z32	X33	Y33	Z33	X34	Y34	Z34	X35	Y35	Z35	X36	Y36	Z36	X37	Y37	Z37

	79	0.91667	1912.421	813.601	-248.392	1907.151	796.200	-177.153	1883.513	787.053	-327.154	1988.320	432.947	-185.601	1781.328	415.029	-343.426	2068.150	65.802	-194.996	1546.060	141.133	-321.451	1986.656	862.773	-267.800	2001.221	869.910	-150.335	1972.091	855.636	-385.266	1795.163	930.652	-212.933	1787.989	923.901	-266.637	2006.199	435.661	-130.492	1788.038	415.705	-401.033	1967.270	426.074	-231.998	1813.707	416.568	-278.977	2059.404	62.905	-156.072	1531.089	151.126	-357.172	2073.265	76.531	-228.810	1561.010	141.837	-298.678	1843.575	1361.242	-251.023	1976.676	1305.540	-207.098	1971.641	1300.273	-314.237	1970.701	1299.290	-259.867	2014.085	1232.108	-262.361	2100.452	591.567	-234.536	1861.943	541.145	-482.084	2046.140	631.472	-161.887	1813.600	597.363	-420.383	2051.382	543.485	-160.229	1806.200	510.188	-411.003	2043.690	139.944	-83.245	1699.328	175.479	-333.303	2039.809	148.107	-125.645	1664.781	201.419	-336.173	2173.105	42.588	-171.126	1601.231	49.862	-351.443
	80	0.92500	1921.801	816.217	-247.093	1914.968	798.165	-175.030	1892.142	788.185	-325.104	1993.064	434.092	-184.534	1794.008	414.288	-344.466	2068.710	65.887	-195.054	1554.040	145.579	-322.243	1994.741	864.524	-265.599	2008.641	872.285	-148.341	1980.840	856.764	-382.857	1803.005	931.999	-212.684	1796.008	924.888	-266.368	2010.954	436.490	-129.414	1800.954	415.446	-402.037	1974.433	428.020	-230.059	1828.583	414.722	-280.913	2060.010	62.987	-156.119	1539.039	156.033	-357.820	2073.967	76.437	-228.856	1569.515	145.916	-299.500	1850.366	1362.283	-249.497	1983.627	1307.329	-205.488	1978.693	1302.243	-312.772	1977.746	1301.134	-258.391	2021.498	1234.223	-260.937	2107.178	593.280	-233.274	1873.848	541.951	-482.386	2053.564	633.269	-159.870	1825.197	596.919	-420.245	2059.017	545.333	-158.650	1819.183	509.857	-411.858	2045.328	140.008	-83.048	1708.075	176.649	-334.956	2041.627	148.103	-125.593	1674.081	203.498	-337.783	2173.473	42.151	-171.577	1604.074	50.874	-351.352
	81	0.93333	1930.847	818.517	-246.091	1922.637	800.012	-172.954	1900.620	789.356	-323.102	1997.652	435.137	-183.502	1807.032	413.542	-345.474	2069.413	65.959	-195.042	1562.688	149.879	-322.961	2002.662	866.266	-263.377	2015.911	874.529	-146.265	1989.413	858.003	-380.489	1810.806	933.201	-212.297	1803.918	925.813	-266.026	2015.377	437.186	-128.315	1814.030	415.225	-403.025	1981.295	429.450	-228.005	1844.078	413.401	-281.539	2060.521	63.016	-156.154	1547.659	160.782	-358.391	2074.327	76.567	-228.858	1578.627	149.767	-300.206	1857.626	1363.724	-247.818	1990.642	1308.932	-204.249	1985.630	1303.706	-311.105	1984.731	1302.905	-256.956	2028.472	1235.753	-259.415	2114.005	594.446	-231.584	1885.426	542.837	-482.713	2060.764	634.503	-157.819	1836.139	596.280	-420.240	2066.159	546.699	-156.718	1831.900	508.446	-412.059	2046.369	139.941	-82.908	1717.334	177.815	-336.549	2042.663	148.027	-125.332	1683.575	205.145	-339.088	2173.819	41.695	-171.966	1607.409	52.145	-351.202
	82	0.94167	1938.456	819.188	-245.214	1930.180	801.691	-170.965	1908.944	790.545	-321.190	2002.095	436.075	-182.522	1820.355	412.818	-346.438	2070.248	65.995	-194.991	1571.937	154.028	-323.586	2010.427	867.968	-261.174	2023.053	876.590	-144.140	1997.800	859.345	-378.208	1818.512	934.242	-211.743	1811.672	926.674	-265.592	2019.480	437.746	-127.214	1827.238	415.050	-403.985	1986.455	431.728	-228.035	1859.552	413.371	-281.676	2060.942	62.975	-156.206	1556.897	165.349	-358.879	2074.537	76.809	-228.843	1588.159	153.274	-300.919	1864.356	1364.790	-246.495	1997.412	1310.912	-203.342	1992.613	1305.453	-309.451	1991.673	1304.561	-255.557	2035.760	1237.849	-257.918	2120.854	594.964	-229.462	1896.686	543.784	-483.029	2067.832	635.213	-155.335	1846.598	596.271	-419.922	2072.275	547.221	-155.141	1844.255	508.422	-411.891	2046.852	139.742	-82.830	1727.064	178.987	-337.998	2042.936	147.816	-125.005	1693.725	207.170	-340.456	2174.153	41.206	-172.308	1611.303	53.706	-350.984
	83	0.95000	1945.449	819.280	-244.651	1937.597	803.159	-169.099	1917.092	791.736	-319.405	2006.404	436.905	-181.615	1833.916	412.148	-347.350	2071.181	65.981	-194.940	1581.716	158.045	-324.089	2018.034	869.585	-259.029	2030.084	878.405	-142.016	2005.984	860.765	-376.042	1826.095	935.128	-211.031	1819.234	927.470	-265.050	2023.288	438.182	-126.141	1840.557	414.930	-404.902	1989.307	434.820	-229.296	1874.189	412.432	-282.897	2061.287	62.865	-156.308	1566.693	169.735	-359.270	2075.472	77.143	-228.645	1597.794	156.621	-301.336	1871.034	1365.591	-245.437	2003.991	1312.619	-202.202	1999.669	1307.274	-307.966	1998.579	1306.087	-254.210	2043.043	1239.883	-256.524	2127.635	594.807	-226.964	1907.691	544.775	-483.305	2074.714	635.604	-152.850	1857.171	596.300	-419.060	2076.987	546.835	-153.767	1856.192	508.834	-411.967	2046.884	139.435	-82.814	1737.216	180.175	-339.219	2042.922	147.996	-124.748	1704.260	209.158	-341.808	2174.472	40.699	-172.614	1615.801	55.562	-350.703
	84	0.95833	1952.846	820.004	-244.253	1944.885	804.377	-167.392	1925.044	792.908	-317.784	2010.588	437.642	-180.803	1847.666	411.558	-348.196	2072.154	65.915	-194.924	1591.962	161.952	-324.435	2025.481	871.075	-256.978	2037.012	879.917	-139.941	2013.950	862.232	-374.015	1833.521	935.872	-210.175	1826.596	928.198	-264.383	2026.837	438.517	-125.132	1853.985	414.867	-405.756	1992.421	436.465	-228.772	1886.549	410.314	-284.696	2061.574	62.702	-156.483	1576.991	173.947	-359.535	2077.085	77.318	-228.381	1607.642	159.888	-301.801	1877.866	1366.483	-244.200	2010.880	1313.672	-200.789	2006.650	1308.663	-306.549	2005.435	1307.484	-252.940	2050.124	1241.194	-255.305	2134.259	594.030	-224.172	1918.540	545.795	-483.525	2081.304	635.126	-150.577	1867.596	595.976	-418.200	2081.548	546.187	-151.694	1867.285	508.336	-412.323	2046.630	139.070	-82.850	1747.744	181.383	-340.144	2042.900	148.274	-124.785	1714.815	210.600	-342.602	2174.767	40.207	-172.894	1620.929	57.696	-350.384
	85	0.96667	1960.118	820.796	-243.591	1952.052	805.331	-165.858	1932.783	794.048	-316.338	2014.668	438.304	-180.109	1861.568	411.060	-348.967	2073.095	65.807	-194.974	1602.629	165.752	-324.592	2032.773	872.408	-255.048	2043.860	881.094	-137.952	2021.686	863.722	-372.143	1840.777	936.491	-209.192	1833.758	928.855	-263.577	2030.174	438.779	-124.222	1867.534	414.855	-406.535	1996.230	437.152	-227.474	1898.965	409.365	-285.974	2061.821	62.513	-156.737	1587.742	177.983	-359.645	2078.892	77.460	-228.157	1618.324	163.161	-302.305	1884.627	1367.306	-242.804	2017.966	1314.804	-199.481	2013.389	1309.910	-305.122	2012.234	1308.738	-251.734	2057.212	1242.494	-254.160	2140.669	592.753	-221.186	1929.342	546.828	-483.683	2087.172	633.996	-148.011	1877.655	595.953	-417.783	2085.990	545.811	-149.098	1878.386	508.318	-412.696	2046.291	138.711	-82.918	1758.621	182.606	-340.739	2043.013	148.421	-124.908	1725.758	212.526	-342.950	2175.025	39.770	-173.160	1626.724	60.063	-350.070
	86	0.97500	1967.225	821.529	-243.040	1959.117	806.019	-164.492	1940.302	795.141	-315.060	2018.678	438.903	-179.541	1875.588	410.653	-349.665	2073.933	65.676	-195.111	1613.683	169.440	-324.544	2039.919	873.569	-253.250	2050.656	881.933	-136.064	2029.183	865.205	-370.436	1847.845	936.998	-208.094	1840.735	929.442	-262.619	2033.365	438.986	-123.431	1881.211	414.888	-407.237	1999.243	437.857	-226.789	1913.922	408.621	-287.023	2062.048	62.330	-157.064	1598.903	181.838	-359.585	2080.040	77.760	-228.134	1629.209	166.047	-302.237	1891.201	1368.300	-241.599	2024.738	1315.940	-198.416	2020.088	1311.296	-304.031	2018.986	1309.820	-250.566	2064.085	1243.842	-253.287	2146.844	591.133	-218.097	1940.195	547.862	-483.794	2092.304	632.947	-145.728	1888.089	595.634	-417.206	2089.417	545.008	-146.683	1890.496	508.270	-412.818	2046.063	138.404	-82.998	1769.826	183.838	-341.000	2043.033	148.538	-124.908	1737.374	214.321	-343.162	2175.236	39.419	-173.420	1633.260	62.602	-349.802
	87	0.98333	1973.694	821.608	-242.222	1966.082	806.464	-163.281	1947.594	796.173	-313.930	2022.655	439.444	-179.092	1889.695	410.332	-350.297	2074.611	65.549	-195.337	1625.096	173.001	-324.299	2046.925	874.547	-251.593	2057.412	882.449	-134.287	2036.437	866.644	-368.899	1854.739	937.408	-206.901	1847.562	929.964	-261.508	2036.478	439.148	-122.763	1895.022	414.958	-407.866	2001.680	438.462	-226.253	1928.831	407.654	-287.898	2062.260	62.186	-157.441	1610.443	185.498	-359.358	2080.445	77.947	-228.426	1640.231	168.919	-302.014	1897.863	1369.565	-240.254	2031.188	1316.775	-197.378	2026.814	1312.298	-303.381	2025.693	1310.760	-249.441	2070.518	1244.668	-252.437	2152.793	589.336	-215.001	1951.178	548.884	-483.877	2097.477	631.897	-143.969	1898.931	595.310	-416.411	2092.515	543.676	-144.599	1902.729	507.781	-412.706	2046.104	138.163	-83.075	1781.341	185.072	-340.953	2043.097	148.488	-125.032	1749.223	215.385	-343.140	2175.395	39.169	-173.677	1640.647	65.247	-349.605
	88	0.99167	1979.862	821.431	-241.243	1972.935	806.703	-162.211	1954.653	797.130	-312.933	2026.620	439.924	-178.743	1903.872	410.082	-350.866	2075.091	65.450	-195.634	1636.856	176.400	-323.881	2053.791	875.339	-250.083	2064.127	882.683	-132.629	2043.454	867.996	-367.537	1861.491	937.745	-205.631	1854.254	930.437	-260.257	2039.569	439.271	-122.210	1908.972	415.055	-408.427	2005.454	438.411	-225.528	1942.544	408.082	-287.716	2062.451	62.109	-157.831	1622.336	188.938	-358.981	2080.765	77.853	-228.897	1651.962	172.281	-301.797	1904.861	1370.263	-239.064	2037.773	1317.652	-195.926	2033.350	1312.710	-302.651	2032.350	1311.602	-248.377	2076.999	1245.258	-251.064	2158.543	587.519	-211.993	1962.338	549.882	-483.956	2102.551	630.769	-142.099	1909.848	595.164	-416.339	2096.310	542.503	-142.554	1914.731	507.753	-412.545	2046.493	137.974	-83.148	1793.153	186.298	-340.643	2043.683	148.127	-125.359	1761.614	217.186	-342.902	2175.508	39.019	-173.932	1649.023	67.937	-349.479
	89	1.00000	1986.848	822.234	-240.400	1979.665	806.792	-161.253	1961.471	798.000	-312.033	2030.577	440.342	-178.472	1918.101	409.881	-351.374	2075.359	65.401	-195.967	1648.955	179.586	-323.316	2060.513	875.954	-248.718	2070.792	882.694	-131.089	2050.234	869.215	-366.346	1868.133	938.039	-204.313	1860.817	930.883	-258.902	2042.678	439.358	-121.757	1923.052	415.161	-408.921	2010.340	437.518	-224.478	1956.912	409.155	-287.148	2062.603	62.115	-158.198	1634.567	192.117	-358.472	2081.223	77.552	-229.391	1664.088	175.143	-301.106	1911.767	1370.567	-238.210	2044.566	1318.359	-194.527	2039.931	1313.324	-301.581	2038.956	1312.318	-247.359	2083.793	1245.982	-249.864	2164.126	585.825	-209.161	1973.693	550.850	-484.044	2107.247	629.446	-140.168	1921.054	594.965	-416.635	2100.497	541.490	-140.416	1927.182	507.831	-412.401	2047.225	137.811	-83.222	1805.266	187.499	-340.133	2044.785	147.739	-125.834	1774.524	219.226	-342.959	2175.587	38.956	-174.183	1658.535	70.608	-349.400
